<svg width="136" height="87" viewBox="0 0 136 87" fill="none" xmlns="http://www.w3.org/2000/svg">
<path d="M20.1239 66.8434C19.5897 66.8434 19.0681 66.5739 18.7709 66.0852C12.4678 55.7254 10.7799 43.1082 14.14 31.47C16.5582 23.0948 21.3662 15.7222 28.047 10.1514C33.661 5.47118 40.4129 2.24596 47.5743 0.824088C54.342 -0.518967 61.4496 -0.216305 68.1241 1.70212C74.8445 3.63158 80.8189 7.01286 85.8844 11.753C86.5198 12.3488 86.553 13.3467 85.9555 13.9803C85.3549 14.6156 84.3576 14.6456 83.7207 14.0513C79.025 9.6564 73.4821 6.52103 67.2501 4.7303C60.9676 2.92695 54.557 2.65266 48.1907 3.91532C41.5462 5.23473 35.2826 8.22665 30.0732 12.5679C23.8792 17.7336 19.419 24.5719 17.1762 32.3417C14.0594 43.1366 15.6257 54.8379 21.472 64.4489C21.9257 65.193 21.687 66.1624 20.941 66.6133C20.685 66.7693 20.4036 66.8434 20.1239 66.8434Z" fill="currentColor"/>
<path d="M56.0127 87C51.9729 87 47.9237 86.442 43.9882 85.3133C40.4131 84.2871 36.9897 82.8164 33.816 80.9437C33.0652 80.5007 32.8155 79.5328 33.2596 78.7856C33.7053 78.0368 34.6726 77.7878 35.4249 78.2308C38.3679 79.9679 41.5431 81.3314 44.8622 82.2836C55.586 85.3638 67.2344 83.8504 76.825 78.1362C77.571 77.6932 78.543 77.9328 78.9919 78.6816C79.4392 79.4288 79.1958 80.3967 78.445 80.8428C71.6282 84.9066 63.8426 87 56.0127 87Z" fill="currentColor"/>
<path d="M10.3294 77.8475C5.6384 77.8475 2.21817 76.6889 0.734063 74.0106C-1.51343 69.9578 1.42317 63.6524 9.2246 55.7785C9.83942 55.1606 10.8383 55.1527 11.461 55.7659C12.0822 56.3775 12.0869 57.3754 11.4737 57.9949C5.04729 64.48 2.06644 69.8979 3.50155 72.4863C6.18842 77.3289 24.9049 74.6601 51.5761 61.7907C52.3616 61.4171 53.3084 61.7403 53.6877 62.5237C54.067 63.3072 53.7383 64.2499 52.9527 64.6298C37.4052 72.1316 20.7434 77.8475 10.3294 77.8475Z" fill="currentColor"/>
<path d="M31.6631 53.9375C31.0182 53.9375 30.4113 53.5403 30.1774 52.9003C25.0139 38.7509 32.3553 23.0504 46.5405 17.902C47.3592 17.6025 48.2664 18.025 48.5651 18.8447C48.8638 19.6628 48.4403 20.5677 47.62 20.8656C35.0738 25.4197 28.5811 39.3074 33.1472 51.8236C33.4443 52.6418 33.0223 53.5466 32.202 53.8429C32.025 53.906 31.8417 53.9375 31.6631 53.9375Z" fill="currentColor"/>
<path d="M85.7011 59.6599C85.1416 59.6599 84.6169 59.3636 84.3339 58.8733L74.3451 41.6564C74.0258 41.1062 74.0685 40.4174 74.4541 39.9129C79.2036 33.6863 85.9002 27.9799 93.8218 23.4085C109.156 14.5588 125.773 12.0193 135.171 17.092C135.694 17.3742 136.015 17.9259 135.999 18.5186C135.724 29.1716 125.236 42.2759 109.902 51.1255C101.98 55.6954 93.6827 58.6448 85.9034 59.6489C85.8354 59.6552 85.7675 59.6599 85.7011 59.6599ZM77.6136 40.9959L86.5372 56.3748C93.6053 55.3013 101.113 52.5553 108.32 48.3953C122.025 40.4851 131.896 28.7271 132.78 19.4219C124.25 15.5456 109.109 18.227 95.407 26.1356C88.1967 30.2956 82.0675 35.4187 77.6136 40.9959Z" fill="currentColor"/>
<path d="M85.7359 74.5309C85.4641 74.5309 85.1922 74.4616 84.9472 74.3213C84.4589 74.0391 84.157 73.5205 84.1554 72.9577L84.1222 58.0848C84.1206 57.2919 84.7102 56.6204 85.5004 56.5179C90.9358 55.818 96.8612 54.0273 102.633 51.3459C103.234 51.0637 103.943 51.1898 104.414 51.6549C104.885 52.1215 105.015 52.8293 104.738 53.4299L98.4781 67.0858C98.3421 67.3822 98.1161 67.6312 97.8332 67.7936L86.5294 74.3181C86.2812 74.4616 86.0078 74.5309 85.7359 74.5309ZM87.2848 59.4484L87.3101 70.2259L95.8133 65.3187L100.157 55.8433C95.807 57.5646 91.4337 58.791 87.2848 59.4484Z" fill="currentColor"/>
<path d="M75.7106 42.4433C75.4419 42.4433 75.1684 42.3755 74.9219 42.232L62.0107 34.7916C61.5223 34.5095 61.2204 33.9909 61.2204 33.4281C61.2204 32.8653 61.5207 32.3451 62.0091 32.063L73.3145 25.5384C73.599 25.3745 73.9277 25.3036 74.2533 25.3335L89.2414 26.7254C89.9004 26.7869 90.452 27.2504 90.6227 27.8888C90.7918 28.5272 90.5453 29.2035 90.0032 29.5834C84.797 33.2374 80.2893 37.4699 76.9687 41.8222C76.6605 42.2257 76.191 42.4433 75.7106 42.4433ZM65.9588 33.4249L75.3154 38.8161C77.9549 35.5562 81.1997 32.3861 84.8618 29.4825L74.462 28.5178L65.9588 33.4249Z" fill="currentColor"/>
<path d="M107.558 43.2284C104.357 43.2284 101.237 41.5748 99.521 38.6176C98.2803 36.4816 97.95 33.9894 98.5869 31.6044C99.2254 29.2194 100.757 27.2237 102.9 25.9878C105.045 24.7504 107.542 24.4225 109.932 25.0578C112.325 25.6946 114.323 27.2221 115.563 29.3596C116.804 31.4956 117.136 33.9862 116.497 36.3713C115.859 38.7579 114.327 40.752 112.184 41.9878C110.727 42.8296 109.132 43.2284 107.558 43.2284ZM104.484 28.7165C103.071 29.5315 102.064 30.8461 101.642 32.4178C101.222 33.9894 101.44 35.6304 102.257 37.0381C103.945 39.9449 107.689 40.9411 110.6 39.2592C112.013 38.4442 113.022 37.1295 113.442 35.5579C113.864 33.9863 113.644 32.3453 112.827 30.9376C112.01 29.5283 110.692 28.5226 109.116 28.1033C107.539 27.6808 105.894 27.9015 104.484 28.7165Z" fill="currentColor"/>
<path d="M68.459 60.6796C66.9433 60.6796 65.5809 60.3895 64.4761 59.7937C63.953 59.5099 63.6321 58.9598 63.6479 58.3671C63.738 54.8676 66.9085 50.8084 71.7291 48.0278C74.1378 46.6358 76.6761 45.7373 79.0643 45.4299C79.7076 45.3558 80.316 45.6538 80.6337 46.2039L83.5118 51.1647C83.8311 51.7148 83.7884 52.4021 83.4028 52.9081C81.9456 54.8203 79.9004 56.5669 77.4885 57.9572C74.3954 59.7448 71.1807 60.6796 68.459 60.6796ZM67.0081 57.3818C69.0375 57.8027 72.3913 57.2573 75.9064 55.2301C77.5833 54.2638 79.0848 53.0674 80.226 51.7968L78.4479 48.734C76.7757 49.0886 74.9881 49.7917 73.3128 50.758C69.7961 52.7868 67.6451 55.4146 67.0081 57.3818Z" fill="currentColor"/>
</svg>
