<svg width="1145" height="796" viewBox="0 0 1145 796" fill="none" xmlns="http://www.w3.org/2000/svg">
<path d="M870.903 493.36C881.848 531.679 859.657 571.614 821.342 582.56C783.026 593.506 743.095 571.313 732.15 532.994C721.205 494.674 743.396 454.739 781.712 443.793C820.027 432.847 859.958 455.04 870.903 493.36Z" fill="#F5D76E"/>
<path d="M870.903 493.36C881.848 531.679 859.657 571.614 821.342 582.56C783.026 593.506 743.095 571.313 732.15 532.994C721.205 494.674 743.396 454.739 781.712 443.793C820.027 432.847 859.958 455.04 870.903 493.36Z" fill="#F5D76E"/>
<path d="M870.586 492.551C850.628 499.252 827.772 509.343 802.493 516.55C777.276 523.758 752.377 527.306 731.928 532.17C731.31 530.158 730.978 528.368 730.914 528.099C748.48 524.724 773.633 518.641 801.083 510.8C828.627 502.927 852.561 494.658 869.256 488.243C869.351 488.512 870.19 490.413 870.586 492.551Z" fill="#99770D"/>
<path d="M845.544 456.085C828.026 442.573 804.536 437.266 781.632 443.825C758.728 450.367 741.59 467.269 733.845 488.005L845.544 456.085Z" fill="#E5D39A"/>
<path d="M731.358 496.052C729.552 503.498 728.919 511.291 729.6 519.18L865.787 480.275C862.207 473.226 857.55 466.937 852.086 461.583L731.358 496.052Z" fill="#F7DF8B"/>
<path d="M754.04 567.511C771.843 583.051 796.917 589.546 821.341 582.56C845.766 575.59 863.633 556.834 870.539 534.229L754.04 567.511Z" fill="#E5CA76"/>
<path d="M871.014 493.36C860.069 455.04 820.138 432.847 781.822 443.793C776.706 445.251 771.891 447.247 767.393 449.67C800.212 447.944 831.067 468.949 840.491 501.914C849.979 535.116 834.567 569.507 805.375 585.237C810.713 584.952 816.115 584.097 821.468 582.56C859.784 571.614 881.959 531.679 871.014 493.36Z" fill="#736A4D"/>
<path d="M866.309 481.368C890.845 476.378 905.148 475.126 906.05 478.342C907.666 483.997 861.589 502.104 803.126 518.8C744.679 535.496 695.988 544.462 694.373 538.807C693.454 535.591 706.236 529.002 729.71 520.257C679.452 537.08 647.472 551.211 649.056 556.739C651.258 564.438 721.3 551.179 805.518 527.117C889.736 503.054 956.214 477.313 954.028 469.614C952.444 464.101 917.867 469.091 866.309 481.368Z" fill="#B99812"/>
<path d="M866.135 481.527C888.279 476.854 894.868 477.82 895.612 480.45C896.927 485.059 855.143 501.043 802.271 516.139C749.399 531.236 705.476 539.742 704.161 535.133C703.417 532.519 708.612 528.036 729.679 520.369C729.758 520.337 729.663 519.957 729.663 519.957C684.156 534.958 661.759 546.427 663.042 550.926C664.832 557.199 728.031 544.669 804.203 522.903C880.375 501.154 940.659 478.422 938.87 472.133C937.602 467.666 911.848 470.026 866.214 481.036C865.771 481.162 866.61 481.416 866.135 481.527Z" fill="#99770D"/>
<path d="M866.309 481.78C887.946 477.091 892.761 478.184 893.427 480.561C894.614 484.727 853.638 500.077 801.906 514.856C750.175 529.636 707.266 538.237 706.078 534.087C705.397 531.727 709.056 528.052 729.711 520.654C729.79 520.622 729.711 520.29 729.711 520.29C685.123 534.816 664.611 545.192 665.767 549.263C667.383 554.934 729.124 542.277 803.649 520.987C878.189 499.696 937.286 477.836 935.67 472.165C934.514 468.141 911.008 470.438 866.389 481.368C865.961 481.448 866.769 481.654 866.309 481.78Z" fill="#F7CA18"/>
<path opacity="0.9" d="M355.824 383.312C355.824 421.177 325.136 451.885 287.275 451.885C249.413 451.885 218.709 421.177 218.709 383.312C218.709 345.447 249.396 314.739 287.275 314.739C325.136 314.756 355.824 345.447 355.824 383.312Z" fill="#D35400"/>
<path opacity="0.9" d="M298.722 315.718C313.397 328.299 322.716 346.957 322.716 367.795C322.716 405.661 292.029 436.351 254.15 436.351C250.254 436.351 246.427 436.008 242.703 435.39C254.682 445.654 270.249 451.885 287.275 451.885C325.136 451.885 355.824 421.177 355.824 383.312C355.824 349.36 331.126 321.176 298.722 315.718Z" fill="#6A2A00"/>
<path opacity="0.9" d="M287.275 355.625C287.275 357.737 278.59 359.436 267.881 359.436C257.171 359.436 248.487 357.737 248.487 355.625C248.487 353.514 257.171 351.815 267.881 351.815C278.59 351.815 287.275 353.514 287.275 355.625Z" fill="#6A2A00"/>
<path opacity="0.9" d="M267.881 383.81C267.881 385.921 259.196 387.621 248.487 387.621C237.777 387.621 229.093 385.921 229.093 383.81C229.093 381.699 237.777 380 248.487 380C259.196 380 267.881 381.699 267.881 383.81Z" fill="#6A2A00"/>
<path opacity="0.9" d="M302.464 404.82C302.464 406.931 293.78 408.63 283.07 408.63C272.36 408.63 263.676 406.931 263.676 404.82C263.676 402.708 272.36 401.009 283.07 401.009C293.78 401.009 302.464 402.708 302.464 404.82Z" fill="#6A2A00"/>
<path d="M513.725 669.842C513.725 701.454 488.103 727.078 456.481 727.078C424.872 727.078 399.25 701.454 399.25 669.842C399.25 638.23 424.872 612.593 456.481 612.593C488.09 612.606 513.725 638.23 513.725 669.842Z" fill="#837582"/>
<path d="M466.041 613.402C478.299 623.901 486.073 639.476 486.073 656.876C486.073 688.488 460.439 714.112 428.829 714.112C425.566 714.112 422.379 713.829 419.282 713.303C429.292 721.874 442.283 727.066 456.494 727.066C488.103 727.066 513.738 701.442 513.738 669.829C513.725 641.481 493.102 617.951 466.041 613.402Z" fill="#4B3A4A"/>
<path d="M392.527 114.767C392.527 157.791 357.651 192.671 314.632 192.671C271.612 192.671 236.754 157.791 236.754 114.767C236.754 71.7438 271.63 36.8638 314.632 36.8638C357.669 36.8818 392.527 71.7438 392.527 114.767Z" fill="#00A8D6"/>
<path d="M264.983 127.037C264.947 127.073 264.929 127.218 264.929 127.218C264.929 127.218 264.947 127.145 264.983 127.037Z" fill="#87D37C"/>
<path d="M311.821 125.974L303.571 120.46L300.508 120.208L297.734 114.767L292.473 112.047L286.655 112.173L283.898 114.497L281.25 109.272L275.558 109.434L273.234 111.903H267.325L267.199 109.218L264.641 106.714L264.515 103.741C264.515 103.741 261.326 103.183 261.488 103.831C261.65 104.48 259.038 106.173 259.038 106.173C258.426 105.885 256.354 100.877 256.354 100.877L258.948 98.192C258.948 98.192 266.929 98.3722 267.739 98.156C268.55 97.9398 272.387 100.318 272.909 100.624C273.432 100.931 278.908 95.1833 278.692 94.7509C278.476 94.3185 281.358 84.8418 281.304 84.2472C281.268 83.6527 286.619 78.6441 286.619 78.6441L295.194 78.5L295.14 73.077L295.968 73.0229L303.589 75.8515L308.867 70.2304L306.003 70.1403C306.453 68.3386 301.301 61.4383 300.706 61.9788C300.112 62.5193 295.626 64.6272 295.626 64.6272L284.133 64.8074C284.133 64.8074 281.214 70.0682 281.124 70.1403L278.746 67.5639L275.648 67.4018L275.774 61.7626L283.034 59.1682L284.313 59.1142L287.177 61.7806L294.527 59.1322L300.742 59.0241C300.22 55.0965 295.374 50.7725 295.374 50.7725H289.627C290.222 51.4031 282.223 56.0694 282.223 56.0694C281.827 56.2495 280.818 56.0694 280.818 56.0694C279.773 52.6102 270.694 50.5203 270.694 50.5203L270.586 50.5923C240.861 70.8429 237.745 102.804 237.745 102.804L238.105 103.093L239.42 103.561L242.807 103.939L245.239 106.498C245.239 106.498 245.077 105.759 248.553 106.534C252.012 107.308 256.102 111.939 256.102 111.939L262.047 112.065L264.605 114.785H270.171L270.225 117.848C270.225 117.848 267.559 120.01 266.947 121.163C266.388 122.172 265.289 126.172 265.055 127.055C265.109 127 265.181 127.307 265.217 129.469C265.271 132.838 273.108 139.81 273.108 139.81L278.584 140.026L278.8 145.864L284.133 155.917C284.133 155.917 283.574 162.655 284.079 162.565C284.079 162.565 285.556 166.871 286.42 167.015C286.42 167.015 288.492 172.024 288.402 172.402C288.402 172.402 289.429 174.6 289.699 175.699C289.987 176.816 292.582 178.924 292.582 178.924L297.806 178.708C297.806 178.708 295.356 175.807 294.779 175.213C294.185 174.618 292.527 171.123 292.527 171.123C292.527 171.123 292.69 170.871 292.473 169.88C292.257 168.889 295.05 163.448 295.014 162.529C294.977 161.592 300.922 159.52 300.922 159.52L300.868 150.981L306.399 148.206C306.399 148.206 306.273 143.197 306.615 142.603C306.957 142.008 311.065 140.999 312.001 139.792C312.938 138.585 314.415 132.117 314.596 131.739C314.668 131.36 312.073 125.505 311.821 125.974Z" fill="#87D37C"/>
<path d="M293.28 78.1039L295 77L298.648 78.1039L300.5 74L293.028 75.2573V77.4734L293.28 78.1039Z" fill="#87D37C"/>
<path d="M297.04 77.5627L294.266 75.3466L294.5 72.5H300.085L299.832 75.0223L297.725 77.2023L297.04 77.5627Z" fill="#87D37C"/>
<path d="M342 66.0002V68.1195L343.782 70.0002L345 68.2599L343.893 66.295L342 66.0002Z" fill="#87D37C"/>
<path d="M345.509 64.8434L347.995 62.4292L353.129 64.8434L350.841 69.9781H348.049V67.0775L345.509 64.8434Z" fill="#87D37C"/>
<path d="M359.092 50.7905V58.898C359.092 58.898 359.506 59.8348 362.28 62.4292L367.469 64.4651L365.001 67.4018L359.092 67.7441L356.354 69.9781V75.5453L353.633 73.2572L348.193 74.5005L346.5 78.572L348.193 83.7608L353.147 84.3193L356.804 80.8601C356.804 80.8601 362.19 79.1846 364.154 76.1578C366.136 73.131 366.694 80.0494 366.694 80.0494L367.505 84.3193L370.297 86.7335L375.485 84.1392L370.783 78.572L372.945 76.1038L378.386 80.752L378.692 83.9049L381.917 84.2833L384.204 86.7515L387.465 87.0218C387.447 87.0218 380.295 65.4019 359.092 50.7905Z" fill="#87D37C"/>
<path d="M373.954 165.268L370.063 162.295V156.602L365.235 146.459L370.423 140.153L367.829 134.964L368.081 128.406L363.127 126.424L357.435 125.559L351.616 129.019L345.491 128.532L339.618 126.064C339.618 126.064 336.772 118.893 336.772 118.515C336.772 118.137 336.772 110.227 336.772 110.227L339.132 107.759L339.618 98.1022L342.068 95.742H347.545L351.76 93.1476L361.902 92.4089L369.577 97.5977C369.577 97.5977 376.386 92.7693 378.728 93.3999C381.088 94.0124 382.565 95.0033 383.916 95.2556C385.285 95.5078 390.095 95.4357 390.095 95.4357C390.095 95.4357 402.616 130.928 373.954 165.268Z" fill="#87D37C"/>
<path d="M409.695 17.6398C409.695 26.9544 402.147 34.5213 392.816 34.5213C383.502 34.5213 375.936 26.9724 375.936 17.6398C375.936 8.32525 383.484 0.758301 392.816 0.758301C402.147 0.758301 409.695 8.30723 409.695 17.6398Z" fill="#FBFCFC"/>
<path opacity="0.6" d="M358.263 50.0156C366.568 62.411 371.432 77.3107 371.432 93.3454C371.432 136.369 336.556 171.249 293.536 171.249C277.503 171.249 262.587 166.402 250.211 158.079C264.19 178.924 287.952 192.635 314.938 192.635C357.957 192.635 392.834 157.755 392.834 114.731C392.816 87.7783 379.106 63.9965 358.263 50.0156Z" fill="#072730"/>
<path d="M399.841 2.30811C402.616 5.31687 404.327 9.31654 404.327 13.7306C404.327 23.0451 396.779 30.6121 387.447 30.6121C384.943 30.6121 382.565 30.0536 380.439 29.0627C383.52 32.4138 387.934 34.5217 392.834 34.5217C402.147 34.5217 409.713 26.9728 409.713 17.6402C409.695 10.8299 405.642 4.97455 399.841 2.30811Z" fill="#7E7E7E"/>
<path opacity="0.9" d="M910.398 205.229C910.398 206.221 910.384 207.213 910.342 208.205C910.342 208.737 910.3 209.254 910.286 209.785C910.23 210.875 910.146 211.937 910.076 213.027C910.02 213.558 909.978 214.075 909.923 214.62C909.839 215.235 909.783 215.864 909.685 216.479C909.629 216.94 909.573 217.429 909.489 217.919C909.406 218.464 909.336 219.023 909.238 219.568C909.182 220.015 909.098 220.448 909.028 220.867C908.916 221.51 908.791 222.125 908.679 222.754C908.539 223.341 908.427 223.942 908.288 224.515C908.148 225.2 907.994 225.857 907.826 226.514C907.435 228.065 907.002 229.616 906.541 231.154C906.289 231.95 906.038 232.747 905.758 233.515C905.591 234.019 905.409 234.522 905.241 235.011C905.129 235.36 905.004 235.696 904.878 236.017C904.584 236.814 904.277 237.61 903.942 238.407C903.676 239.092 903.397 239.749 903.103 240.405C903.047 240.517 903.005 240.643 902.949 240.755C902.754 241.216 902.544 241.663 902.335 242.138C902.293 242.222 902.251 242.292 902.223 242.39C901.873 243.131 901.524 243.857 901.161 244.598C900.867 245.185 900.56 245.758 900.252 246.345C899.707 247.393 899.148 248.4 898.561 249.42C898.128 250.16 897.709 250.901 897.234 251.614C897.22 251.656 897.178 251.712 897.164 251.754C895.417 254.563 893.531 257.246 891.49 259.832C891.085 260.335 890.68 260.838 890.275 261.327C886.124 266.372 881.443 270.914 876.272 274.911C875.364 275.624 874.442 276.323 873.492 276.994C872.849 277.455 872.192 277.93 871.507 278.363C870.92 278.769 870.319 279.16 869.746 279.523C869.146 279.915 868.545 280.278 867.944 280.655C866.714 281.41 865.484 282.109 864.199 282.808C863.598 283.143 862.969 283.465 862.354 283.772C860.006 284.974 857.603 286.078 855.129 287.07C854.584 287.28 854.039 287.49 853.48 287.713C852.488 288.077 851.496 288.454 850.49 288.775C850.099 288.915 849.707 289.055 849.316 289.167C847.024 289.907 844.677 290.564 842.315 291.109C841.379 291.347 840.442 291.543 839.52 291.71C838.723 291.892 837.913 292.018 837.089 292.157C836.851 292.213 836.599 292.255 836.376 292.269C835.607 292.409 834.825 292.521 834.028 292.633C833.022 292.744 832.002 292.884 830.982 292.982C830.087 293.066 829.193 293.136 828.285 293.192C827.139 293.276 825.993 293.331 824.833 293.373C823.953 293.387 823.086 293.415 822.206 293.415C821.172 293.415 820.166 293.401 819.159 293.359C819.145 293.359 819.118 293.359 819.118 293.359C818.111 293.317 817.091 293.262 816.085 293.206C814.744 293.136 813.402 292.996 812.088 292.842C810.747 292.703 809.433 292.507 808.12 292.297C806.163 291.99 804.221 291.612 802.292 291.179C801.342 290.942 800.392 290.718 799.442 290.466C799.386 290.452 799.344 290.452 799.288 290.424C798.394 290.187 797.499 289.935 796.605 289.67C794.579 289.055 792.608 288.37 790.652 287.615C789.716 287.266 788.793 286.903 787.871 286.511C787.675 286.413 787.48 286.344 787.284 286.26C786.138 285.757 785.006 285.253 783.888 284.708C782.784 284.163 781.652 283.604 780.576 283.017C779.64 282.514 778.718 281.983 777.796 281.438C777.586 281.312 777.362 281.187 777.153 281.075C775.518 280.11 773.925 279.076 772.373 278C770.794 276.938 769.285 275.806 767.818 274.646C766.812 273.863 765.834 273.053 764.869 272.242C757.994 266.372 752.055 259.468 747.262 251.754C745.347 248.665 743.614 245.465 742.077 242.138C741.868 241.677 741.658 241.23 741.462 240.755L741.42 240.657C740.065 237.596 738.891 234.452 737.885 231.209L737.871 231.154C736.082 225.354 734.894 219.274 734.335 213.013V212.957C734.126 210.414 734 207.828 734 205.229C734 200.03 734.461 194.915 735.342 189.967V189.785C736.753 181.819 739.226 174.231 742.608 167.173L742.706 166.977C744.257 163.749 746.004 160.646 747.904 157.669L747.988 157.557C763.653 133.17 791.029 117 822.178 117C827.209 117 832.114 117.433 836.893 118.258C837.857 118.412 838.835 118.607 839.786 118.803C840.456 118.915 841.141 119.068 841.798 119.236C842.734 119.446 843.67 119.683 844.593 119.921C844.704 119.963 844.83 119.977 844.956 120.019C845.99 120.312 847.01 120.606 848.016 120.913C848.226 120.969 848.45 121.053 848.631 121.109C849.386 121.346 850.141 121.598 850.909 121.85C850.951 121.864 850.993 121.864 851.007 121.891C851.748 122.143 852.474 122.409 853.215 122.702C853.508 122.8 853.802 122.898 854.095 123.01C856.499 123.946 858.846 124.994 861.166 126.112C861.655 126.35 862.117 126.601 862.606 126.825C864.31 127.705 865.987 128.628 867.608 129.62C868.042 129.886 868.461 130.151 868.894 130.417C871.172 131.828 873.366 133.352 875.49 134.973C875.993 135.364 876.496 135.755 876.985 136.133C877.977 136.915 878.97 137.726 879.92 138.565C880.409 138.97 880.87 139.403 881.331 139.822C881.792 140.256 882.267 140.675 882.729 141.108C883.665 141.961 884.559 142.855 885.426 143.763C887.634 146.042 889.716 148.417 891.672 150.905C892.455 151.911 893.209 152.918 893.95 153.952C894.802 155.14 895.599 156.314 896.395 157.544C896.437 157.627 896.493 157.683 896.535 157.753C897.178 158.759 897.793 159.794 898.394 160.814C899.051 161.946 899.679 163.064 900.28 164.21C900.783 165.16 901.286 166.153 901.762 167.145H901.776C901.873 167.382 902.013 167.648 902.125 167.9C902.53 168.766 902.935 169.66 903.327 170.583C903.732 171.533 904.123 172.511 904.487 173.476C904.584 173.713 904.668 173.923 904.752 174.161C905.101 175.111 905.451 176.089 905.786 177.054C905.8 177.109 905.828 177.193 905.842 177.263C906.205 178.353 906.555 179.457 906.876 180.561C907.212 181.708 907.519 182.854 907.812 184.013C907.924 184.461 908.022 184.894 908.12 185.327C908.274 185.97 908.413 186.613 908.539 187.256C908.595 187.521 908.637 187.787 908.693 188.038C908.791 188.542 908.889 189.073 908.986 189.59C909 189.646 909 189.702 909.028 189.771C909.028 189.827 909.042 189.911 909.07 189.967C909.182 190.722 909.308 191.477 909.42 192.259C909.517 192.818 909.601 193.405 909.657 193.964C909.741 194.495 909.797 195.012 909.853 195.543C909.992 196.731 910.09 197.919 910.16 199.121C910.216 200.127 910.286 201.12 910.314 202.126C910.314 202.14 910.314 202.14 910.314 202.168C910.384 203.188 910.398 204.194 910.398 205.229Z" fill="#FF9600"/>
<path opacity="0.9" d="M910.398 205.229C910.398 206.221 910.384 207.213 910.342 208.206C910.342 208.737 910.3 209.254 910.286 209.785C910.23 210.875 910.146 211.937 910.076 213.027C910.02 213.558 909.979 214.075 909.923 214.621C909.839 215.235 909.783 215.864 909.685 216.479C909.629 216.94 909.573 217.43 909.489 217.919C909.406 218.464 909.336 219.023 909.238 219.568C909.182 220.015 909.098 220.448 909.028 220.868C908.917 221.511 908.791 222.125 908.679 222.754C908.539 223.341 908.427 223.942 908.288 224.515C908.148 225.2 907.994 225.857 907.827 226.514C907.435 228.065 907.002 229.616 906.541 231.154C906.289 231.95 906.038 232.747 905.758 233.516C905.591 234.019 905.409 234.522 905.241 235.011C905.13 235.36 905.004 235.696 904.878 236.017C904.585 236.814 904.277 237.611 903.942 238.407C903.676 239.092 903.397 239.749 903.103 240.406C903.047 240.517 903.005 240.643 902.95 240.755C902.754 241.216 902.544 241.663 902.335 242.139C902.293 242.223 902.251 242.292 902.223 242.39C901.873 243.131 901.524 243.858 901.161 244.598C900.867 245.185 900.56 245.758 900.252 246.345C899.707 247.394 899.148 248.4 898.562 249.42C898.128 250.161 897.709 250.901 897.234 251.614C897.22 251.656 897.178 251.712 897.164 251.754C895.417 254.563 893.531 257.246 891.491 259.832C891.085 260.335 890.68 260.838 890.275 261.327C886.124 266.373 881.443 270.915 876.273 274.912C875.364 275.624 874.442 276.323 873.492 276.994C872.849 277.455 872.192 277.93 871.507 278.364C870.92 278.769 870.32 279.16 869.747 279.524C869.146 279.915 868.545 280.278 867.944 280.656C866.714 281.41 865.484 282.109 864.199 282.808C863.598 283.143 862.969 283.465 862.354 283.772C860.006 284.974 857.603 286.078 855.129 287.071C854.584 287.28 854.039 287.49 853.48 287.713C852.488 288.077 851.496 288.454 850.49 288.776C850.099 288.915 849.707 289.055 849.316 289.167C847.024 289.908 844.677 290.564 842.315 291.11C841.379 291.347 840.442 291.543 839.52 291.71C838.724 291.892 837.913 292.018 837.089 292.158C836.851 292.214 836.599 292.256 836.376 292.27C835.607 292.409 834.825 292.521 834.028 292.633C833.022 292.745 832.002 292.884 830.982 292.982C830.087 293.066 829.193 293.136 828.285 293.192C827.139 293.276 825.993 293.332 824.833 293.374C823.953 293.388 823.086 293.416 822.206 293.416C821.172 293.416 820.166 293.402 819.16 293.36C819.146 293.36 819.118 293.36 819.118 293.36C818.111 293.318 817.091 293.262 816.085 293.206C814.744 293.136 813.402 292.996 812.089 292.843C810.747 292.703 809.433 292.507 808.12 292.297C806.163 291.99 804.221 291.613 802.293 291.179C801.342 290.942 800.392 290.718 799.442 290.467C799.386 290.453 799.344 290.453 799.288 290.425C798.394 290.187 797.499 289.936 796.605 289.67C794.579 289.055 792.608 288.37 790.652 287.616C789.716 287.266 788.793 286.903 787.871 286.512C787.675 286.414 787.48 286.344 787.284 286.26C786.138 285.757 785.006 285.254 783.888 284.709C782.784 284.164 781.653 283.605 780.576 283.018C779.64 282.514 778.718 281.983 777.796 281.438C777.586 281.313 777.362 281.187 777.153 281.075C775.518 280.111 773.925 279.076 772.374 278C770.794 276.938 769.285 275.806 767.818 274.646C766.812 273.864 765.834 273.053 764.869 272.242C769.649 273.039 774.554 273.486 779.584 273.486C801.776 273.486 822.038 265.31 837.536 251.768C840.932 248.819 844.104 245.619 846.982 242.153C847.374 241.705 847.765 241.244 848.114 240.769C850.602 237.722 852.866 234.522 854.906 231.154C858.358 225.508 861.194 219.428 863.318 213.013C865.764 205.648 867.259 197.864 867.664 189.8C867.748 188.29 867.776 186.767 867.776 185.258C867.776 179.066 867.133 173.029 865.918 167.187C865.233 163.903 864.38 160.702 863.332 157.572C858.218 142.129 848.981 128.586 836.907 118.258C837.871 118.412 838.849 118.607 839.8 118.803C840.47 118.915 841.155 119.069 841.812 119.236C842.748 119.446 843.684 119.684 844.607 119.921C844.719 119.963 844.844 119.977 844.97 120.019C846.004 120.312 847.024 120.606 848.031 120.913C848.24 120.969 848.464 121.053 848.645 121.109C849.4 121.347 850.155 121.598 850.923 121.85C850.965 121.864 851.007 121.864 851.021 121.892C852.069 122.241 853.103 122.604 854.109 123.024C856.513 123.96 858.861 125.008 861.18 126.126C861.669 126.364 862.131 126.616 862.62 126.839C864.325 127.734 866.001 128.67 867.622 129.634C868.056 129.9 868.475 130.165 868.908 130.431C871.186 131.842 873.38 133.366 875.504 134.987C876.007 135.378 876.51 135.77 876.999 136.147C877.991 136.93 878.984 137.74 879.934 138.579C880.423 138.984 880.884 139.417 881.345 139.837C881.806 140.27 882.281 140.689 882.743 141.122C883.651 142.003 884.573 142.883 885.44 143.778C887.648 146.056 889.73 148.432 891.686 150.919C892.469 151.926 893.223 152.932 893.964 153.966C894.816 155.154 895.613 156.328 896.41 157.558C896.451 157.642 896.507 157.697 896.549 157.767C897.192 158.774 897.807 159.808 898.408 160.828C899.065 161.96 899.693 163.078 900.294 164.224C900.797 165.174 901.301 166.167 901.776 167.159H901.79C901.887 167.397 902.027 167.662 902.139 167.914C902.544 168.78 902.949 169.675 903.341 170.597C903.746 171.547 904.137 172.526 904.501 173.49C904.598 173.728 904.682 173.937 904.766 174.175C905.116 175.125 905.465 176.103 905.8 177.068C905.814 177.124 905.842 177.208 905.856 177.277C906.22 178.368 906.569 179.472 906.89 180.576C907.226 181.722 907.533 182.868 907.827 184.028C907.938 184.475 908.036 184.908 908.134 185.341C908.288 185.984 908.427 186.627 908.553 187.27C908.609 187.536 908.651 187.801 908.707 188.053C908.805 188.556 908.903 189.087 909 189.604C909.014 189.66 909.014 189.716 909.042 189.786C909.042 189.842 909.056 189.925 909.084 189.981C909.196 190.736 909.322 191.491 909.434 192.273C909.531 192.832 909.615 193.419 909.671 193.978C909.755 194.509 909.811 195.027 909.867 195.558C910.007 196.746 910.104 197.934 910.174 199.135C910.23 200.142 910.3 201.134 910.328 202.14C910.328 202.154 910.328 202.154 910.328 202.182C910.384 203.188 910.398 204.195 910.398 205.229Z" fill="#7C4A03"/>
<path opacity="0.6" d="M901.804 167.173H901.776H865.904H742.594L742.692 166.977L747.89 157.669L747.974 157.557H863.318H896.423L901.804 167.173Z" fill="#7C4A03"/>
<path opacity="0.6" d="M910.398 205.228C910.398 206.221 910.384 207.213 910.342 208.205C910.342 208.736 910.3 209.253 910.286 209.785C910.23 210.875 910.146 211.937 910.076 213.027H734.321V212.971L735.327 189.981V189.799H909.056C909.056 189.855 909.07 189.939 909.098 189.995C909.21 190.75 909.336 191.504 909.447 192.287C909.545 192.846 909.629 193.433 909.685 193.992C909.769 194.523 909.825 195.04 909.881 195.571C910.02 196.759 910.118 197.947 910.188 199.149C910.244 200.155 910.314 201.148 910.342 202.154C910.342 202.168 910.342 202.168 910.342 202.196C910.384 203.188 910.398 204.194 910.398 205.228Z" fill="#7C4A03"/>
<path opacity="0.6" d="M906.541 231.139C906.289 231.936 906.038 232.733 905.758 233.501C905.591 234.004 905.409 234.508 905.241 234.997C905.129 235.346 905.004 235.682 904.878 236.003C904.584 236.8 904.277 237.596 903.942 238.393C903.676 239.078 903.397 239.734 903.103 240.391C903.047 240.503 903.005 240.629 902.949 240.741H741.448L741.406 240.643L737.871 231.195L737.857 231.139H906.541V231.139Z" fill="#7C4A03"/>
<path opacity="0.6" d="M902.321 242.125C902.279 242.208 902.237 242.278 902.209 242.376C901.859 243.117 901.51 243.844 901.147 244.584C900.853 245.171 900.546 245.744 900.238 246.331C899.693 247.379 899.134 248.386 898.548 249.406C898.114 250.147 897.695 250.887 897.22 251.6C897.206 251.642 897.164 251.698 897.15 251.74H747.248C745.333 248.651 743.6 245.451 742.063 242.125H902.321Z" fill="#7C4A03"/>
<path d="M21.68 189.836V176.564L24.844 173.4H34.028L37.136 176.508V179.084H33.888V177.656L32.404 176.2H26.524L24.928 177.768V188.632L26.524 190.2H32.404L33.888 188.744V187.316H37.136V189.892L34.028 193H24.844L21.68 189.836ZM39.9489 179.056H42.8889V181.436L45.2129 179.056H49.0769V181.772H45.9129L43.1129 184.628V193H39.9489V179.056ZM50.1963 190.228V181.856L52.9683 179.056H60.5563L63.3843 181.856V187.064H53.3603V189.304L54.4243 190.368H59.2123L60.2203 189.332V188.492H63.3563V190.284L60.6403 193H52.9403L50.1963 190.228ZM60.2203 184.74V182.808L59.1283 181.688H54.4523L53.3603 182.808V184.74H60.2203ZM66.1891 190.508V187.204L68.6811 184.74H75.8771V182.668L74.8411 181.632H70.4451L69.4091 182.668V183.564H66.3011V181.94L69.1571 179.056H76.1291L78.9851 181.94V193H76.1011V190.844L73.8611 193H68.6811L66.1891 190.508ZM73.5531 190.508L75.8771 188.268V187.092H70.1931L69.2971 187.96V189.668L70.1371 190.508H73.5531ZM83.4823 190.228V181.744H80.9623V179.056H83.5383V174.52H86.6463V179.056H90.9303V181.744H86.6463V189.22L87.7383 190.312H90.9303V193H86.2543L83.4823 190.228ZM92.9072 190.228V181.856L95.6792 179.056H103.267L106.095 181.856V187.064H96.0712V189.304L97.1352 190.368H101.923L102.931 189.332V188.492H106.067V190.284L103.351 193H95.6512L92.9072 190.228ZM102.931 184.74V182.808L101.839 181.688H97.1632L96.0712 182.808V184.74H102.931ZM121.295 176.172H115.415V173.4H130.423V176.172H124.543V193H121.295V176.172ZM132.808 173.008H135.972V181.464L138.38 179.056H142.776L145.716 181.996V193H142.552V182.864L141.46 181.772H138.884L135.972 184.712V193H132.808V173.008ZM148.935 190.228V181.856L151.707 179.056H159.295L162.123 181.856V187.064H152.099V189.304L153.163 190.368H157.951L158.959 189.332V188.492H162.095V190.284L159.379 193H151.679L148.935 190.228ZM158.959 184.74V182.808L157.867 181.688H153.191L152.099 182.808V184.74H158.959ZM172.983 173.4H176.231V193H172.983V173.4ZM179.86 190.2V181.856L182.632 179.056H188.12L189.996 180.68V173.008H193.16V193H190.164V190.704L187.868 193H182.632L179.86 190.2ZM187.504 190.284L189.996 187.764V183.676L187.84 181.772H184.2L183.024 182.948V189.108L184.2 190.284H187.504ZM196.513 190.228V181.856L199.285 179.056H206.873L209.701 181.856V187.064H199.677V189.304L200.741 190.368H205.529L206.537 189.332V188.492H209.673V190.284L206.957 193H199.257L196.513 190.228ZM206.537 184.74V182.808L205.445 181.688H200.769L199.677 182.808V184.74H206.537ZM212.505 190.508V187.204L214.997 184.74H222.193V182.668L221.157 181.632H216.761L215.725 182.668V183.564H212.617V181.94L215.473 179.056H222.445L225.301 181.94V193H222.417V190.844L220.177 193H214.997L212.505 190.508ZM219.869 190.508L222.193 188.268V187.092H216.509L215.613 187.96V189.668L216.453 190.508H219.869Z" fill="white"/>
<path d="M879.96 283.4H891.888L894.744 286.284V292.948L891.86 295.86H883.208V303H879.96V283.4ZM890.432 293.116L891.552 291.996V287.264L890.432 286.144H883.208V293.116H890.432ZM897.402 289.056H900.342V291.436L902.666 289.056H906.53V291.772H903.366L900.566 294.628V303H897.402V289.056ZM907.649 300.228V291.856L910.421 289.056H918.009L920.837 291.856V297.064H910.813V299.304L911.877 300.368H916.665L917.673 299.332V298.492H920.809V300.284L918.093 303H910.393L907.649 300.228ZM917.673 294.74V292.808L916.581 291.688H911.905L910.813 292.808V294.74H917.673ZM923.362 300.396V298.688H926.47V299.584L927.254 300.396H932.014L932.798 299.584V298.072L931.986 297.26H925.966L923.474 294.74V291.604L926.022 289.056H933.05L935.626 291.66V293.368H932.518V292.472L931.734 291.66H927.366L926.582 292.472V293.872L927.394 294.684H933.386L935.906 297.232V300.452L933.358 303H925.938L923.362 300.396ZM938.575 300.228V291.856L941.347 289.056H948.935L951.763 291.856V297.064H941.739V299.304L942.803 300.368H947.591L948.599 299.332V298.492H951.735V300.284L949.019 303H941.319L938.575 300.228ZM948.599 294.74V292.808L947.507 291.688H942.831L941.739 292.808V294.74H948.599ZM954.988 289.056H957.928V291.604L960.476 289.056H964.9L967.84 291.996V303H964.676V292.864L963.584 291.772H961.064L958.152 294.712V303H954.988V289.056ZM972.326 300.228V291.744H969.806V289.056H972.382V284.52H975.49V289.056H979.774V291.744H975.49V299.22L976.582 300.312H979.774V303H975.098L972.326 300.228ZM994.417 286.172H988.537V283.4H1003.54V286.172H997.665V303H994.417V286.172ZM1005.93 283.008H1009.09V291.464L1011.5 289.056H1015.9L1018.84 291.996V303H1015.67V292.864L1014.58 291.772H1012.01L1009.09 294.712V303H1005.93V283.008ZM1022.06 300.228V291.856L1024.83 289.056H1032.42L1035.24 291.856V297.064H1025.22V299.304L1026.28 300.368H1031.07L1032.08 299.332V298.492H1035.22V300.284L1032.5 303H1024.8L1022.06 300.228ZM1032.08 294.74V292.808L1030.99 291.688H1026.31L1025.22 292.808V294.74H1032.08ZM1045.96 283.4H1057.89L1060.75 286.284V292.948L1057.86 295.86H1049.21V303H1045.96V283.4ZM1056.44 293.116L1057.56 291.996V287.264L1056.44 286.144H1049.21V293.116H1056.44ZM1063.41 289.056H1066.35V291.436L1068.67 289.056H1072.53V291.772H1069.37L1066.57 294.628V303H1063.41V289.056ZM1073.65 300.2V291.856L1076.43 289.056H1084.15L1086.95 291.856V300.2L1084.15 303H1076.43L1073.65 300.2ZM1082.67 300.34L1083.79 299.22V292.836L1082.67 291.716H1077.94L1076.82 292.836V299.22L1077.94 300.34H1082.67ZM1090.46 286.06V284.436L1091.6 283.316H1093.31L1094.46 284.436V286.06L1093.31 287.18H1091.6L1090.46 286.06ZM1086.68 306.388H1089.76L1090.88 305.296V289.056H1094.04V306.248L1091.18 309.104H1086.68V306.388ZM1097.69 300.228V291.856L1100.46 289.056H1108.05L1110.88 291.856V297.064H1100.85V299.304L1101.92 300.368H1106.7L1107.71 299.332V298.492H1110.85V300.284L1108.13 303H1100.43L1097.69 300.228ZM1107.71 294.74V292.808L1106.62 291.688H1101.94L1100.85 292.808V294.74H1107.71ZM1113.82 300.228V291.828L1116.57 289.056H1123.93L1126.7 291.856V294.152H1123.54V292.864L1122.42 291.772H1118.11L1116.99 292.864V299.192L1118.11 300.284H1122.42L1123.54 299.192V297.904H1126.7V300.2L1123.93 303H1116.57L1113.82 300.228ZM1130.76 300.228V291.744H1128.24V289.056H1130.81V284.52H1133.92V289.056H1138.2V291.744H1133.92V299.22L1135.01 300.312H1138.2V303H1133.53L1130.76 300.228Z" fill="white"/>
<path d="M1.68 485.836V472.564L4.844 469.4H14.028L17.136 472.508V475.084H13.888V473.656L12.404 472.2H6.524L4.928 473.768V484.632L6.524 486.2H12.404L13.888 484.744V483.316H17.136V485.892L14.028 489H4.844L1.68 485.836ZM19.9489 475.056H22.8889V477.436L25.2129 475.056H29.0769V477.772H25.9129L23.1129 480.628V489H19.9489V475.056ZM30.1963 486.228V477.856L32.9683 475.056H40.5563L43.3843 477.856V483.064H33.3603V485.304L34.4243 486.368H39.2123L40.2203 485.332V484.492H43.3563V486.284L40.6403 489H32.9403L30.1963 486.228ZM40.2203 480.74V478.808L39.1283 477.688H34.4523L33.3603 478.808V480.74H40.2203ZM46.1891 486.508V483.204L48.6811 480.74H55.8771V478.668L54.8411 477.632H50.4451L49.4091 478.668V479.564H46.3011V477.94L49.1571 475.056H56.1291L58.9851 477.94V489H56.1011V486.844L53.8611 489H48.6811L46.1891 486.508ZM53.5531 486.508L55.8771 484.268V483.092H50.1931L49.2971 483.96V485.668L50.1371 486.508H53.5531ZM63.4823 486.228V477.744H60.9623V475.056H63.5383V470.52H66.6463V475.056H70.9303V477.744H66.6463V485.22L67.7383 486.312H70.9303V489H66.2543L63.4823 486.228ZM72.9072 486.228V477.856L75.6792 475.056H83.2672L86.0952 477.856V483.064H76.0712V485.304L77.1352 486.368H81.9232L82.9312 485.332V484.492H86.0672V486.284L83.3512 489H75.6512L72.9072 486.228ZM82.9312 480.74V478.808L81.8392 477.688H77.1632L76.0712 478.808V480.74H82.9312ZM101.295 472.172H95.4155V469.4H110.423V472.172H104.543V489H101.295V472.172ZM112.808 469.008H115.972V477.464L118.38 475.056H122.776L125.716 477.996V489H122.552V478.864L121.46 477.772H118.884L115.972 480.712V489H112.808V469.008ZM128.935 486.228V477.856L131.707 475.056H139.295L142.123 477.856V483.064H132.099V485.304L133.163 486.368H137.951L138.959 485.332V484.492H142.095V486.284L139.379 489H131.679L128.935 486.228ZM138.959 480.74V478.808L137.867 477.688H133.191L132.099 478.808V480.74H138.959ZM159.918 485.836V472.564L163.082 469.4H172.434L175.542 472.508V475.084H172.294V473.656L170.81 472.2H164.762L163.166 473.768V484.632L164.762 486.2H170.81L172.378 484.66V481.104H168.094V478.304H175.542V485.836L172.378 489H163.082L159.918 485.836ZM178.341 486.508V483.204L180.833 480.74H188.029V478.668L186.993 477.632H182.597L181.561 478.668V479.564H178.453V477.94L181.309 475.056H188.281L191.137 477.94V489H188.253V486.844L186.013 489H180.833L178.341 486.508ZM185.705 486.508L188.029 484.268V483.092H182.345L181.449 483.96V485.668L182.289 486.508H185.705ZM194.648 475.056H197.588V477.492L199.996 475.056H203.468L205.456 477.072L207.472 475.056H212.176L215.032 477.94V489H211.868V478.864L210.776 477.772H208.172L206.548 479.396V489H203.468V478.836L202.404 477.772H200.5L197.812 480.488V489H194.648V475.056ZM218.239 486.228V477.856L221.011 475.056H228.599L231.427 477.856V483.064H221.403V485.304L222.467 486.368H227.255L228.263 485.332V484.492H231.399V486.284L228.683 489H220.983L218.239 486.228ZM228.263 480.74V478.808L227.171 477.688H222.495L221.403 478.808V480.74H228.263Z" fill="white"/>
<path d="M877.96 580.4H889.832L892.548 583.116V588.604L891.344 589.808L893.416 591.88V597.06L890.476 600H877.96V580.4ZM888.208 588.828L889.356 587.68V584.264L888.236 583.144H881.124V588.828H888.208ZM888.88 597.256L890.224 595.912V592.776L888.88 591.46H881.124V597.256H888.88ZM896.079 597.228V588.856L898.851 586.056H906.439L909.267 588.856V594.064H899.243V596.304L900.307 597.368H905.095L906.103 596.332V595.492H909.239V597.284L906.523 600H898.823L896.079 597.228ZM906.103 591.74V589.808L905.011 588.688H900.335L899.243 589.808V591.74H906.103ZM913.752 597.228V588.744H911.232V586.056H913.808V581.52H916.916V586.056H921.2V588.744H916.916V596.22L918.008 597.312H921.2V600H916.524L913.752 597.228ZM923.447 597.508V594.204L925.939 591.74H933.135V589.668L932.099 588.632H927.703L926.667 589.668V590.564H923.559V588.94L926.415 586.056H933.387L936.243 588.94V600H933.359V597.844L931.119 600H925.939L923.447 597.508ZM930.811 597.508L933.135 595.268V594.092H927.451L926.555 594.96V596.668L927.395 597.508H930.811ZM951.729 583.172H945.849V580.4H960.857V583.172H954.977V600H951.729V583.172ZM960.446 597.228V588.856L963.218 586.056H970.806L973.634 588.856V594.064H963.61V596.304L964.674 597.368H969.462L970.47 596.332V595.492H973.606V597.284L970.89 600H963.19L960.446 597.228ZM970.47 591.74V589.808L969.378 588.688H964.702L963.61 589.808V591.74H970.47ZM976.159 597.396V595.688H979.267V596.584L980.051 597.396H984.811L985.595 596.584V595.072L984.783 594.26H978.763L976.271 591.74V588.604L978.819 586.056H985.847L988.423 588.66V590.368H985.315V589.472L984.531 588.66H980.163L979.379 589.472V590.872L980.191 591.684H986.183L988.703 594.232V597.452L986.155 600H978.735L976.159 597.396ZM992.912 597.228V588.744H990.392V586.056H992.968V581.52H996.076V586.056H1000.36V588.744H996.076V596.22L997.168 597.312H1000.36V600H995.684L992.912 597.228Z" fill="white"/>
<path d="M347.96 762.4H361.624V765.172H351.208V770.772H360.812V773.516H351.208V779.228H361.624V782H347.96V762.4ZM364.554 768.056H367.494V770.604L370.042 768.056H374.466L377.406 770.996V782H374.242V771.864L373.15 770.772H370.63L367.718 773.712V782H364.554V768.056ZM381.186 765.06V763.436L382.334 762.316H384.042L385.19 763.436V765.06L384.042 766.18H382.334L381.186 765.06ZM377.406 785.388H380.486L381.606 784.296V768.056H384.77V785.248L381.914 788.104H377.406V785.388ZM388.419 779.2V770.856L391.191 768.056H398.919L401.719 770.856V779.2L398.919 782H391.191L388.419 779.2ZM397.435 779.34L398.555 778.22V771.836L397.435 770.716H392.703L391.583 771.836V778.22L392.703 779.34H397.435ZM417.818 768.056V785.304L414.934 788.16H407.822L405.358 785.724V783.876H408.522V784.8L409.194 785.5H413.562L414.654 784.38V779.62L412.302 782H407.794L404.938 779.116V768.056H408.102V778.192L409.194 779.284H411.742L414.654 776.26V768.056H417.818ZM433.432 765.172H427.552V762.4H442.56V765.172H436.68V782H433.432V765.172ZM444.945 762.008H448.109V770.464L450.517 768.056H454.913L457.853 770.996V782H454.689V771.864L453.597 770.772H451.021L448.109 773.712V782H444.945V762.008ZM461.071 779.228V770.856L463.843 768.056H471.431L474.259 770.856V776.064H464.235V778.304L465.299 779.368H470.087L471.095 778.332V777.492H474.231V779.284L471.515 782H463.815L461.071 779.228ZM471.095 773.74V771.808L470.003 770.688H465.327L464.235 771.808V773.74H471.095ZM484.7 778.836V765.564L487.864 762.4H497.216L500.324 765.508V768.084H497.076V766.656L495.592 765.2H489.544L487.948 766.768V777.632L489.544 779.2H495.592L497.16 777.66V774.104H492.876V771.304H500.324V778.836L497.16 782H487.864L484.7 778.836ZM503.123 779.508V776.204L505.615 773.74H512.811V771.668L511.775 770.632H507.379L506.343 771.668V772.564H503.235V770.94L506.091 768.056H513.063L515.919 770.94V782H513.035V779.844L510.795 782H505.615L503.123 779.508ZM510.487 779.508L512.811 777.268V776.092H507.127L506.231 776.96V778.668L507.071 779.508H510.487ZM519.429 768.056H522.369V770.492L524.777 768.056H528.249L530.237 770.072L532.253 768.056H536.957L539.813 770.94V782H536.649V771.864L535.557 770.772H532.953L531.329 772.396V782H528.249V771.836L527.185 770.772H525.281L522.593 773.488V782H519.429V768.056ZM543.02 779.228V770.856L545.792 768.056H553.38L556.208 770.856V776.064H546.184V778.304L547.248 779.368H552.036L553.044 778.332V777.492H556.18V779.284L553.464 782H545.764L543.02 779.228ZM553.044 773.74V771.808L551.952 770.688H547.276L546.184 771.808V773.74H553.044Z" fill="white"/>
<path d="M402.687 118.138C500.983 88.1474 473.222 92.5922 564.913 55.4088C676.791 10.0388 819.604 36.075 819.604 101.81M780.936 309.068C710.231 412.835 392.963 140.026 312.8 309.068M312.8 458.583C334.192 600.84 674.249 421.335 732.344 470.179M537.342 690.234C640.698 782.295 873.755 690.234 810.03 597.271" stroke="#FF7A00" stroke-width="14" stroke-dasharray="28 28"/>
<g clip-path="url(#clip0_1_92)">
<path d="M546.214 321.791C547.196 319.706 548.178 317.621 549.163 315.536C549.291 315.266 549.432 315.002 549.568 314.735C549.559 314.707 549.552 314.68 549.548 314.652C549.443 314.616 549.335 314.59 549.236 314.544C546.342 313.181 543.448 311.817 540.554 310.452C540.455 310.405 538.127 309.282 538.034 309.225" fill="#FE3333"/>
<path d="M538.034 309.225C538.127 309.282 540.455 310.405 540.554 310.452C543.426 311.807 546.298 313.161 549.169 314.513C549.215 314.535 549.26 314.558 549.303 314.583C549.476 314.691 549.476 314.691 549.568 314.735C550.611 312.559 551.631 310.3 552.676 308.126C552.75 307.971 552.842 307.825 552.925 307.675C552.786 307.539 552.6 307.573 552.432 307.553" fill="#FE3333"/>
<path d="M546.214 321.791C547.196 319.706 548.178 317.621 549.163 315.537C549.291 315.266 549.432 315.002 549.568 314.735C553.04 316.313 556.557 317.999 559.984 319.672C559.951 319.777 559.929 319.848 559.89 319.95C559.205 321.746 559.604 323.699 561.02 324.954C562.459 326.229 564.479 326.457 566.206 325.558C567.101 325.093 567.702 324.359 568.201 323.517C570.695 324.63 573.155 325.815 575.613 327C574.255 329.858 572.897 332.716 571.54 335.574C571.37 335.54 571.197 335.515 571.029 335.473C565.734 334.136 560.68 332.201 555.955 329.45C554.401 328.459 552.879 327.422 551.417 326.299C549.652 324.944 547.99 323.467 546.325 321.996C546.27 321.948 546.25 321.861 546.214 321.791Z" fill="#EBF6FC"/>
<path d="M575.614 327.001C573.154 325.816 570.694 324.632 568.202 323.518C568.198 323.49 568.194 323.462 568.189 323.434C569.28 321.286 568.289 318.539 566.036 317.463C563.769 316.379 561.03 317.371 560.038 319.588C560.014 319.602 560.007 319.656 559.984 319.672C556.557 317.999 553.04 316.313 549.568 314.735C549.56 314.707 549.574 314.763 549.568 314.735C550.611 312.56 551.631 310.301 552.676 308.126C552.75 307.971 552.842 307.825 552.925 307.675C553.449 307.635 553.959 307.758 554.468 307.836C556.825 308.198 559.166 308.648 561.47 309.265C562.597 309.566 563.718 309.889 564.819 310.273C564.904 310.304 565.002 310.294 565.094 310.303C565.146 310.337 565.192 310.384 565.248 310.403C567.791 311.279 570.182 312.479 572.529 313.772C575.041 315.157 577.46 316.686 579.726 318.446C579.569 318.774 579.411 319.1 579.256 319.429C578.067 321.943 576.878 324.456 575.689 326.97C575.665 326.983 575.641 326.993 575.614 327.001Z" fill="#CCE1FE"/>
<path d="M555.956 329.45C560.68 332.2 565.734 334.136 571.029 335.473C571.197 335.515 571.37 335.54 571.54 335.573C571.651 335.72 571.825 335.764 571.979 335.84C572.686 336.185 573.394 336.528 574.101 336.872C574.672 338.862 575.243 340.851 575.81 342.842C576.115 343.911 575.356 344.806 574.207 344.698C572.108 344.501 570.09 343.968 568.142 343.178C564.095 341.537 560.816 338.951 558.469 335.252C557.329 333.453 556.459 331.529 555.956 329.45Z" fill="#FE3333"/>
<path d="M579.727 318.445C577.46 316.686 575.042 315.156 572.529 313.772C570.182 312.479 567.791 311.279 565.248 310.403C565.192 310.384 565.146 310.337 565.094 310.303C570.914 307.747 576.703 307.8 582.442 310.509C584.636 311.545 586.612 312.912 588.348 314.608C589.346 315.584 589.129 316.666 587.841 317.223C586.005 318.018 584.175 318.821 582.342 319.622C581.458 319.262 580.634 318.76 579.727 318.445Z" fill="#FE3333"/>
<path d="M599.82 338.357C599.464 339.065 599.006 339.319 598.201 339.197C595.63 338.805 593.067 338.357 590.51 337.88C587.609 337.34 584.716 336.767 581.857 336.034C581.167 335.857 580.48 335.668 579.791 335.484C580.091 334.838 580.383 334.188 580.695 333.55C581.244 332.427 581.721 331.269 582.333 330.177C582.508 330.249 582.687 330.315 582.858 330.395C588.337 332.977 593.815 335.561 599.293 338.143C599.464 338.224 599.645 338.286 599.82 338.357Z" fill="#FCD33E"/>
<path d="M599.82 338.357C599.645 338.286 599.465 338.224 599.294 338.143C593.814 335.561 588.336 332.978 582.858 330.395C582.687 330.315 582.508 330.249 582.333 330.177C582.329 330.15 582.325 330.123 582.32 330.098C582.413 329.916 582.512 329.737 582.6 329.552C583.349 327.987 584.096 326.42 584.844 324.854C586.044 325.733 587.264 326.584 588.44 327.493C591.722 330.029 594.876 332.718 598.001 335.441C598.478 335.858 598.964 336.264 599.428 336.694C599.963 337.191 600.079 337.737 599.82 338.357Z" fill="#FFA946"/>
<path d="M582.319 330.098C582.324 330.125 582.328 330.152 582.332 330.177C581.719 331.269 581.242 332.427 580.693 333.55C580.38 334.189 580.091 334.84 579.79 335.484C579.502 336.08 579.215 336.677 578.928 337.275C578.444 338.284 577.726 338.545 576.721 338.08C575.849 337.675 574.975 337.274 574.102 336.873C573.395 336.529 572.686 336.186 571.98 335.841C571.825 335.766 571.651 335.721 571.541 335.575C572.899 332.716 574.256 329.859 575.614 327.001C575.639 326.993 575.666 326.984 575.69 326.971C575.839 327.057 575.983 327.155 576.139 327.228C577.922 328.071 579.706 328.914 581.494 329.751C581.762 329.878 582.016 330.046 582.319 330.098Z" fill="#3E454D"/>
<path d="M582.319 330.099C582.016 330.047 581.762 329.879 581.492 329.752C579.706 328.915 577.92 328.072 576.137 327.228C575.982 327.154 575.838 327.057 575.688 326.972C576.877 324.458 578.066 321.945 579.255 319.431C579.41 319.103 579.569 318.775 579.725 318.447C580.633 318.762 581.456 319.262 582.343 319.623C583.211 320.035 584.083 320.445 584.95 320.864C585.884 321.315 586.142 322.063 585.699 323.011C585.413 323.626 585.128 324.24 584.842 324.856C584.094 326.422 583.346 327.989 582.596 329.554C582.51 329.736 582.412 329.917 582.319 330.099Z" fill="#23272B"/>
<path d="M569.433 321.105L567.108 325.992C566.662 326.93 565.541 327.33 564.602 326.887L559.707 324.58C558.768 324.137 558.369 323.02 558.815 322.082L561.14 317.196C561.586 316.258 562.707 315.858 563.646 316.301L568.541 318.608C569.48 319.051 569.879 320.168 569.433 321.105Z" fill="#74DEF1"/>
<path d="M560.575 319.917L567.68 323.265L566.626 325.479C566.275 326.217 565.392 326.533 564.653 326.184L560.223 324.096C559.485 323.747 559.171 322.868 559.522 322.131L560.575 319.917Z" fill="#CAB5FE"/>
<path d="M563.598 317.003L568.028 319.092C568.767 319.441 569.081 320.32 568.73 321.057L567.679 323.265L560.575 319.917L561.625 317.707C561.976 316.971 562.86 316.656 563.598 317.003Z" fill="#E8E8F3"/>
</g>
<path d="M589.922 373H589.102L582.352 362.898H582.312C582.323 363.18 582.331 363.466 582.336 363.758C582.346 364.044 582.354 364.341 582.359 364.648C582.37 364.951 582.375 365.263 582.375 365.586V373H581.609V361.578H582.438L589.164 371.648H589.203C589.198 371.419 589.19 371.154 589.18 370.852C589.174 370.549 589.167 370.24 589.156 369.922C589.151 369.604 589.148 369.305 589.148 369.023V361.578H589.922V373ZM600 368.742C600 369.398 599.919 369.997 599.758 370.539C599.596 371.076 599.357 371.539 599.039 371.93C598.721 372.32 598.326 372.622 597.852 372.836C597.383 373.049 596.836 373.156 596.211 373.156C595.617 373.156 595.089 373.052 594.625 372.844C594.161 372.63 593.768 372.328 593.445 371.938C593.128 371.547 592.885 371.083 592.719 370.547C592.552 370.005 592.469 369.404 592.469 368.742C592.469 367.831 592.62 367.047 592.922 366.391C593.229 365.729 593.667 365.224 594.234 364.875C594.807 364.521 595.492 364.344 596.289 364.344C597.112 364.344 597.797 364.531 598.344 364.906C598.896 365.276 599.31 365.792 599.586 366.453C599.862 367.115 600 367.878 600 368.742ZM593.281 368.742C593.281 369.487 593.388 370.138 593.602 370.695C593.815 371.253 594.138 371.688 594.57 372C595.008 372.312 595.56 372.469 596.227 372.469C596.909 372.469 597.469 372.312 597.906 372C598.344 371.688 598.667 371.25 598.875 370.688C599.083 370.125 599.188 369.477 599.188 368.742C599.188 368.029 599.089 367.393 598.891 366.836C598.693 366.279 598.38 365.841 597.953 365.523C597.526 365.201 596.969 365.039 596.281 365.039C595.297 365.039 594.549 365.367 594.039 366.023C593.534 366.68 593.281 367.586 593.281 368.742ZM609.133 373L607.328 367.297C607.271 367.125 607.219 366.961 607.172 366.805C607.125 366.648 607.081 366.497 607.039 366.352C606.997 366.206 606.958 366.065 606.922 365.93C606.885 365.789 606.849 365.651 606.812 365.516H606.773C606.737 365.651 606.701 365.789 606.664 365.93C606.628 366.07 606.589 366.216 606.547 366.367C606.505 366.518 606.461 366.672 606.414 366.828C606.367 366.984 606.315 367.146 606.258 367.312L604.391 373H603.578L601.164 364.508H602L603.492 369.938C603.581 370.255 603.656 370.539 603.719 370.789C603.781 371.039 603.836 371.266 603.883 371.469C603.93 371.672 603.971 371.865 604.008 372.047H604.047C604.078 371.917 604.112 371.781 604.148 371.641C604.185 371.495 604.224 371.339 604.266 371.172C604.307 371.005 604.357 370.828 604.414 370.641C604.471 370.453 604.534 370.25 604.602 370.031L606.422 364.508H607.203L608.953 370.016C609.036 370.281 609.112 370.536 609.18 370.781C609.253 371.021 609.315 371.245 609.367 371.453C609.424 371.661 609.471 371.857 609.508 372.039H609.555C609.576 371.867 609.607 371.68 609.648 371.477C609.695 371.268 609.75 371.036 609.812 370.781C609.88 370.526 609.956 370.245 610.039 369.938L611.477 364.508H612.273L609.969 373H609.133ZM624.852 373L623.047 367.297C622.99 367.125 622.938 366.961 622.891 366.805C622.844 366.648 622.799 366.497 622.758 366.352C622.716 366.206 622.677 366.065 622.641 365.93C622.604 365.789 622.568 365.651 622.531 365.516H622.492C622.456 365.651 622.419 365.789 622.383 365.93C622.346 366.07 622.307 366.216 622.266 366.367C622.224 366.518 622.18 366.672 622.133 366.828C622.086 366.984 622.034 367.146 621.977 367.312L620.109 373H619.297L616.883 364.508H617.719L619.211 369.938C619.299 370.255 619.375 370.539 619.438 370.789C619.5 371.039 619.555 371.266 619.602 371.469C619.648 371.672 619.69 371.865 619.727 372.047H619.766C619.797 371.917 619.831 371.781 619.867 371.641C619.904 371.495 619.943 371.339 619.984 371.172C620.026 371.005 620.076 370.828 620.133 370.641C620.19 370.453 620.253 370.25 620.32 370.031L622.141 364.508H622.922L624.672 370.016C624.755 370.281 624.831 370.536 624.898 370.781C624.971 371.021 625.034 371.245 625.086 371.453C625.143 371.661 625.19 371.857 625.227 372.039H625.273C625.294 371.867 625.326 371.68 625.367 371.477C625.414 371.268 625.469 371.036 625.531 370.781C625.599 370.526 625.674 370.245 625.758 369.938L627.195 364.508H627.992L625.688 373H624.852ZM632.844 364.344C633.568 364.344 634.169 364.513 634.648 364.852C635.133 365.19 635.492 365.654 635.727 366.242C635.966 366.831 636.086 367.505 636.086 368.266V368.836H629.953C629.953 370.003 630.221 370.898 630.758 371.523C631.299 372.148 632.073 372.461 633.078 372.461C633.604 372.461 634.06 372.419 634.445 372.336C634.836 372.247 635.268 372.099 635.742 371.891V372.617C635.326 372.805 634.909 372.94 634.492 373.023C634.076 373.112 633.596 373.156 633.055 373.156C632.195 373.156 631.474 372.979 630.891 372.625C630.312 372.266 629.875 371.76 629.578 371.109C629.286 370.458 629.141 369.698 629.141 368.828C629.141 367.979 629.281 367.216 629.562 366.539C629.849 365.862 630.266 365.328 630.812 364.938C631.365 364.542 632.042 364.344 632.844 364.344ZM632.836 365.023C632.023 365.023 631.365 365.294 630.859 365.836C630.359 366.372 630.065 367.148 629.977 368.164H635.266C635.266 367.544 635.177 366.997 635 366.523C634.823 366.049 634.555 365.682 634.195 365.422C633.841 365.156 633.388 365.023 632.836 365.023ZM645.547 364.359C646.479 364.359 647.177 364.594 647.641 365.062C648.104 365.531 648.336 366.279 648.336 367.305V373H647.727L647.586 371.516H647.539C647.357 371.833 647.135 372.117 646.875 372.367C646.615 372.612 646.294 372.805 645.914 372.945C645.539 373.086 645.081 373.156 644.539 373.156C643.992 373.156 643.523 373.065 643.133 372.883C642.747 372.701 642.448 372.435 642.234 372.086C642.026 371.737 641.922 371.312 641.922 370.812C641.922 369.969 642.271 369.328 642.969 368.891C643.667 368.448 644.669 368.198 645.977 368.141L647.555 368.062V367.445C647.555 366.576 647.383 365.956 647.039 365.586C646.695 365.216 646.188 365.031 645.516 365.031C645.078 365.031 644.656 365.089 644.25 365.203C643.849 365.312 643.44 365.471 643.023 365.68L642.773 365.023C643.18 364.831 643.615 364.672 644.078 364.547C644.547 364.422 645.036 364.359 645.547 364.359ZM647.547 368.68L646.062 368.742C644.984 368.794 644.164 368.987 643.602 369.32C643.039 369.654 642.758 370.154 642.758 370.82C642.758 371.357 642.924 371.768 643.258 372.055C643.596 372.341 644.065 372.484 644.664 372.484C645.596 372.484 646.307 372.219 646.797 371.688C647.292 371.156 647.542 370.432 647.547 369.516V368.68ZM654.445 364.359C654.669 364.359 654.88 364.372 655.078 364.398C655.276 364.424 655.461 364.461 655.633 364.508L655.508 365.234C655.336 365.188 655.161 365.154 654.984 365.133C654.807 365.107 654.617 365.094 654.414 365.094C654.013 365.094 653.654 365.169 653.336 365.32C653.023 365.471 652.758 365.688 652.539 365.969C652.32 366.25 652.154 366.589 652.039 366.984C651.924 367.38 651.867 367.823 651.867 368.312V373H651.07V364.508H651.75L651.828 366.109H651.875C652.005 365.781 652.188 365.487 652.422 365.227C652.661 364.961 652.951 364.75 653.289 364.594C653.628 364.438 654.013 364.359 654.445 364.359ZM660.516 364.344C661.24 364.344 661.841 364.513 662.32 364.852C662.805 365.19 663.164 365.654 663.398 366.242C663.638 366.831 663.758 367.505 663.758 368.266V368.836H657.625C657.625 370.003 657.893 370.898 658.43 371.523C658.971 372.148 659.745 372.461 660.75 372.461C661.276 372.461 661.732 372.419 662.117 372.336C662.508 372.247 662.94 372.099 663.414 371.891V372.617C662.997 372.805 662.581 372.94 662.164 373.023C661.747 373.112 661.268 373.156 660.727 373.156C659.867 373.156 659.146 372.979 658.562 372.625C657.984 372.266 657.547 371.76 657.25 371.109C656.958 370.458 656.812 369.698 656.812 368.828C656.812 367.979 656.953 367.216 657.234 366.539C657.521 365.862 657.938 365.328 658.484 364.938C659.036 364.542 659.714 364.344 660.516 364.344ZM660.508 365.023C659.695 365.023 659.036 365.294 658.531 365.836C658.031 366.372 657.737 367.148 657.648 368.164H662.938C662.938 367.544 662.849 366.997 662.672 366.523C662.495 366.049 662.227 365.682 661.867 365.422C661.513 365.156 661.06 365.023 660.508 365.023ZM671.039 360.844V364.812C671.039 365.042 671.034 365.255 671.023 365.453C671.018 365.651 671.008 365.852 670.992 366.055H671.047C671.188 365.732 671.388 365.443 671.648 365.188C671.914 364.932 672.24 364.729 672.625 364.578C673.016 364.427 673.466 364.352 673.977 364.352C674.622 364.352 675.164 364.464 675.602 364.688C676.044 364.906 676.38 365.242 676.609 365.695C676.839 366.148 676.953 366.732 676.953 367.445V373H676.172V367.492C676.172 366.648 675.979 366.029 675.594 365.633C675.208 365.237 674.648 365.039 673.914 365.039C673.289 365.039 672.763 365.161 672.336 365.406C671.909 365.646 671.586 366.01 671.367 366.5C671.148 366.984 671.039 367.591 671.039 368.32V373H670.25V360.844H671.039ZM682.922 364.344C683.646 364.344 684.247 364.513 684.727 364.852C685.211 365.19 685.57 365.654 685.805 366.242C686.044 366.831 686.164 367.505 686.164 368.266V368.836H680.031C680.031 370.003 680.299 370.898 680.836 371.523C681.378 372.148 682.151 372.461 683.156 372.461C683.682 372.461 684.138 372.419 684.523 372.336C684.914 372.247 685.346 372.099 685.82 371.891V372.617C685.404 372.805 684.987 372.94 684.57 373.023C684.154 373.112 683.674 373.156 683.133 373.156C682.273 373.156 681.552 372.979 680.969 372.625C680.391 372.266 679.953 371.76 679.656 371.109C679.365 370.458 679.219 369.698 679.219 368.828C679.219 367.979 679.359 367.216 679.641 366.539C679.927 365.862 680.344 365.328 680.891 364.938C681.443 364.542 682.12 364.344 682.922 364.344ZM682.914 365.023C682.102 365.023 681.443 365.294 680.938 365.836C680.438 366.372 680.143 367.148 680.055 368.164H685.344C685.344 367.544 685.255 366.997 685.078 366.523C684.901 366.049 684.633 365.682 684.273 365.422C683.919 365.156 683.466 365.023 682.914 365.023ZM691.883 364.359C692.107 364.359 692.318 364.372 692.516 364.398C692.714 364.424 692.898 364.461 693.07 364.508L692.945 365.234C692.773 365.188 692.599 365.154 692.422 365.133C692.245 365.107 692.055 365.094 691.852 365.094C691.451 365.094 691.091 365.169 690.773 365.32C690.461 365.471 690.195 365.688 689.977 365.969C689.758 366.25 689.591 366.589 689.477 366.984C689.362 367.38 689.305 367.823 689.305 368.312V373H688.508V364.508H689.188L689.266 366.109H689.312C689.443 365.781 689.625 365.487 689.859 365.227C690.099 364.961 690.388 364.75 690.727 364.594C691.065 364.438 691.451 364.359 691.883 364.359ZM697.953 364.344C698.677 364.344 699.279 364.513 699.758 364.852C700.242 365.19 700.602 365.654 700.836 366.242C701.076 366.831 701.195 367.505 701.195 368.266V368.836H695.062C695.062 370.003 695.331 370.898 695.867 371.523C696.409 372.148 697.182 372.461 698.188 372.461C698.714 372.461 699.169 372.419 699.555 372.336C699.945 372.247 700.378 372.099 700.852 371.891V372.617C700.435 372.805 700.018 372.94 699.602 373.023C699.185 373.112 698.706 373.156 698.164 373.156C697.305 373.156 696.583 372.979 696 372.625C695.422 372.266 694.984 371.76 694.688 371.109C694.396 370.458 694.25 369.698 694.25 368.828C694.25 367.979 694.391 367.216 694.672 366.539C694.958 365.862 695.375 365.328 695.922 364.938C696.474 364.542 697.151 364.344 697.953 364.344ZM697.945 365.023C697.133 365.023 696.474 365.294 695.969 365.836C695.469 366.372 695.174 367.148 695.086 368.164H700.375C700.375 367.544 700.286 366.997 700.109 366.523C699.932 366.049 699.664 365.682 699.305 365.422C698.951 365.156 698.497 365.023 697.945 365.023Z" fill="white"/>
<defs>
<clipPath id="clip0_1_92">
<rect width="48.7854" height="48.7854" fill="white" transform="translate(554.416 355.089) rotate(-109.657)"/>
</clipPath>
</defs>
</svg>
