<svg width="25" height="25" viewBox="0 0 25 25" fill="none" xmlns="http://www.w3.org/2000/svg">
<path fill-rule="evenodd" clip-rule="evenodd" d="M17.0483 9.80256C17.0483 13.5677 14.0072 16.6051 10.2742 16.6051C6.5411 16.6051 3.5 13.5677 3.5 9.80256C3.5 6.0374 6.5411 3 10.2742 3C14.0072 3 17.0483 6.0374 17.0483 9.80256ZM15.5139 18.079C13.9996 19.0453 12.202 19.6051 10.2742 19.6051C4.87604 19.6051 0.5 15.2164 0.5 9.80256C0.5 4.38876 4.87604 0 10.2742 0C15.6723 0 20.0483 4.38876 20.0483 9.80256C20.0483 12.1971 19.1922 14.3912 17.7702 16.0936L23.9844 22.3511L21.8704 24.4797L15.5139 18.079Z" fill="black"/>
</svg>
